<svg xmlns="http://www.w3.org/2000/svg" xmlns:xlink="http://www.w3.org/1999/xlink" width="400" height="400" viewBox="0 0 400 400"><defs><linearGradient id="gradient-19"><stop stop-color="#905e25" offset="0"/><stop stop-color="#f5ec8b" offset="0.5"/><stop stop-color="#905e36" offset="1"/></linearGradient></defs>
<rect data-name="background" width="100%" height="100%" fill="#7a1717"/><g data-name="business_name" fill="#6b1313" data="id:130" transform="translate(56.93835444475785,159.2539114148786) scale(1.1047231367853936)"><path d="M15.92,39.24q1.12,0.4,0.64,1q-0.36,0.52-0.96,0.24l-7.16-3.04l-6.8-2.36q-0.32-0.08-0.52-0.4q-0.12-0.2-0.12-0.6t0.12-0.6q0.2-0.32,0.52-0.4l6.8-2.36l7.16-3.04q0.6-0.28,0.96,0.24q0.48,0.6-0.64,1l-7.36,2.2l-6.16,2.96l6.16,2.96z M27.68,21.52q-0.76,0.36-1.72,1.32q-1.96,2-2.92,5.28t-0.84,6.88q0.2,5.12,3.68,8.98t8,4.1q1.44,0.08,2.8-0.26t2.44-0.96t2.04-1.5t1.66-1.86t1.32-2.04t1.02-2t0.72-1.82t0.46-1.42t0.18-0.86q0.04-0.2,0.24-0.2t0.2,0.24l-1.88,10.72q-0.08,0.08-0.2,0.18t-0.6,0.4t-1.06,0.58t-1.56,0.58t-2.1,0.52t-2.7,0.34t-3.3,0.08q-3.84-0.16-7.22-2.18t-5.4-5.36t-2.02-7.14q0-1.96,0.38-3.6t0.9-2.74t1.56-2.24t1.88-1.84t2.28-1.78q3.36-2.52,4.84-2.52q2.2,0.04,6.32,1.42t6.04,1.54q0.52,0.04,1.16-0.22t1-0.62l0.88-0.92q0.2-0.2,0.4,0q0.16,0.2,0,0.4l-3.84,3.96q-0.76,0.64-2.18,0.34t-2.98-1.16t-3.38-1.68t-3.42-1.2t-3.08,0.26z M69.76,43.72q0.08-0.16,0.28-0.16q0.16,0,0.24,0.14t0,0.3q-0.92,1.32-1.64,1.96q-1.96,1.8-3.36,2q-1.72,0.2-2.34-0.62t-0.62-2.38q0-0.8,0.06-1.64t0.14-1.24l0.04-0.44q-0.16,0.28-0.44,0.76t-1.22,1.68t-1.92,2.12t-2.46,1.68t-2.92,0.76q-2.48,0-3.86-1.74t-0.62-4.1q0.52-1.6,1.84-2.74t2.76-1.74q1.68-0.72,9.08-4.2q0.12-2.48-0.68-3.92q-0.16-0.36-0.28-0.54t-0.34-0.48t-0.42-0.48t-0.56-0.36t-0.74-0.24t-0.92-0.06t-1.18,0.12q-0.8,0.16-1.58,0.66t-1.38,1.14t-1.08,1.26t-0.92,1.14t-0.72,0.68q-0.68,0.36-1.18,0.18t-0.82-0.6t-0.24-0.98t0.56-0.96q0.92-0.72,3.54-1.88t4.9-1.24q1.28-0.04,2.3,0.16t1.76,0.54t1.3,0.92t0.92,1.14t0.58,1.36t0.32,1.44t0.12,1.54t0,1.46t-0.06,1.4t-0.06,1.2t-0.06,1.18t-0.08,1.52t-0.04,1.56t0.04,1.5t0.2,1.16t0.4,0.68q0.4,0.32,0.88,0.12t0.88-0.54t0.76-0.86t0.56-0.84t0.28-0.48z M52.4,44.92q0.88,1.04,2.3,1.36t2.66-0.2q1.6-0.68,3.14-2.32t2.18-3.16l0.12-6.16q-3.6,1.96-8.68,4.28q-1.4,0.6-2.08,1.54t-0.64,1.86t0.32,1.64t0.68,1.16z M82.12,47.48q0.24,0,0.24,0.26t-0.24,0.26l-5.68,0l-5.4,0q-0.24,0-0.24-0.26t0.24-0.26q2.56,0,3.26-0.96t0.74-4.24q0.04-8.28,0.04-20.64q0-2.76-0.98-3.82t-2.98-1.1q-0.24,0-0.24-0.24t0.24-0.24q2.12,0.16,4.12-0.04q0.64-0.08,1.16-0.2t0.9-0.24t0.54-0.12q0.36-0.08,0.44,0.28q0.04,0.08,0,0.2t-0.04,0.16q-0.24,2-0.3,8.76t0.02,12.56l0.08,5.76q0.12,2.52,0.9,3.32t3.18,0.8z   M103.56,21.52q-0.76,0.36-1.72,1.32q-1.96,2-2.92,5.28t-0.84,6.88q0.2,5.12,3.68,8.98t8,4.1q1.44,0.08,2.8-0.26t2.44-0.96t2.04-1.5t1.66-1.86t1.32-2.04t1.02-2t0.72-1.82t0.46-1.42t0.18-0.86q0.04-0.2,0.24-0.2t0.2,0.24l-1.88,10.72q-0.08,0.08-0.2,0.18t-0.6,0.4t-1.06,0.58t-1.56,0.58t-2.1,0.52t-2.7,0.34t-3.3,0.08q-3.84-0.16-7.22-2.18t-5.4-5.36t-2.02-7.14q0-1.96,0.38-3.6t0.9-2.74t1.56-2.24t1.88-1.84t2.28-1.78q3.36-2.52,4.84-2.52q2.2,0.04,6.32,1.42t6.04,1.54q0.52,0.04,1.16-0.22t1-0.62l0.88-0.92q0.2-0.2,0.4,0q0.16,0.2,0,0.4l-3.84,3.96q-0.76,0.64-2.18,0.34t-2.98-1.16t-3.38-1.68t-3.42-1.2t-3.08,0.26z M137.68,27.48q4.32,0.4,6.92,3.82t1.84,7.74q-0.8,4.28-4.64,7.24q-1.6,1.2-3.72,1.84t-4.08,0.48q-2.8-0.24-5.02-1.88t-3.24-4.24t-0.5-5.44q0.76-4.2,4.64-7.24q1.4-1.12,3.58-1.82t4.22-0.5z M143.44,43.36q0.44-1.24,0.56-2.58t-0.12-2.68t-0.8-2.6t-1.5-2.4t-2.14-1.98q-2.44-1.68-5.02-1.98t-4.26,0.98q-1.28,0.96-1.92,2.6q-1.2,3.12-0.08,6.64t4.08,5.6q2.4,1.68,5,1.98t4.28-0.94q0.56-0.44,1.1-1.2t0.82-1.44z M172,47.44q0.24,0,0.24,0.24q0,0.08-0.04,0.14t-0.1,0.1t-0.1,0.04q-2.12-0.16-4.12,0q-0.64,0.08-1.16,0.2t-0.9,0.24t-0.54,0.12q-0.36,0.08-0.44-0.28q-0.04-0.12,0.04-0.32q0.12-0.36,0.12-2.4l-0.22,0.16t-0.64,0.44t-0.96,0.62t-1.22,0.66t-1.36,0.6t-1.42,0.46t-1.38,0.18q-2.84,0-5.06-1.72t-3.18-4.4t-0.44-5.52q0.8-4.24,4.46-7t8.02-2.44q1.84,0.16,3.48,0.88q0-8.08-0.08-8.44q-0.28-1.8-1.22-2.54t-2.62-0.74q-0.24,0-0.24-0.26t0.24-0.26q2.12,0.16,4.12-0.04q0.64-0.04,1.16-0.16t0.9-0.24t0.54-0.16q0.36-0.04,0.44,0.32q0.04,0.04,0,0.16t-0.04,0.16q-0.16,1.12-0.24,4.68q0,1.56-0.02,4.46t-0.02,5.88t0.02,5.76t0.02,4.54l0,1.76q0.08,1.8,0.32,2.2q0.96,1.88,3.64,1.92z M165,44.96q0-0.36,0.02-1.26t0.06-1.46l0-10.6q-0.96-1-2.08-1.72q-2.16-1.32-4.26-1.3t-3.9,1.18t-2.72,3.2q-1.4,3-0.12,6.84t4.4,5.84q2.32,1.36,4.48,1.12t4.12-1.84z M196.16,41.72q0.16-0.2,0.38-0.14t0.3,0.26q0.08,0.24-0.12,0.4q-0.72,0.72-1.18,1.16t-1.4,1.24t-1.72,1.3t-1.98,1.12t-2.36,0.94t-2.64,0.5t-3.04,0.1q-4.44-0.32-6.96-3.74t-1.72-7.9q0.44-2.32,1.84-4.38t3.52-3.4t4.48-1.66q2.36-0.28,4.76,0.36t3.94,2t1.54,3q0,0.76-0.8,1.28t-1.96,0.72t-2.3,0.3t-1.98,0.1l-0.8-0.04l-9.88,0q-0.28,2.96,1.04,5.82t3.88,4.42q2.76,1.6,5.76,1.24t5.46-1.74t3.94-3.26z M180.84,28.84q-2.56,1.04-4.12,3.88q-0.32,0.56-0.52,1.88l9.76,0q1.96,0,3.04-0.88t1.08-2.12q0-1.04-1.34-2.04t-3.38-1.32t-4.52,0.6z M217.92,28.04q0,0.16-0.16,0.2q-0.88,0.28-2.66,2.26t-3.68,4.64t-3.66,5.26t-2.92,4.4l-1.16,1.8q-0.24,0.64,0.84,0.84q0.76,0.12,5.68,0.12q1.16,0,2.12-0.28t1.62-0.8t1.2-1.1t0.88-1.3t0.56-1.34t0.34-1.28t0.16-1t0.08-0.62q0-0.16,0.12-0.16q0.16,0,0.16,0.16l-0.68,8.16l-18.64,0q-0.2,0-0.2-0.2q0-0.16,0.16-0.2q0.68-0.12,1.82-1.22t2.44-2.74t2.72-3.62t2.7-3.92t2.3-3.56t1.62-2.62l0.64-1q0.2-0.32-0.48-0.44q-0.8-0.2-5.24-0.2q-1.44,0-2.58,0.48t-1.78,1.16t-1.14,1.64t-0.68,1.68t-0.34,1.52t-0.24,0.96q0,0.12-0.12,0.12q-0.16,0-0.16-0.16l1-7.84l2.66,0t5.6,0.02t4.9-0.02q1-0.04,4,0q0.2,0,0.2,0.2z M237.96,14.92q0.32-0.12,0.5,0.1t0.18,0.64t-0.24,0.9l-8.56,20.44l-8,21.36q-0.16,0.4-0.52,0.5t-0.68-0.14q-0.56-0.4,0-1.64l8.68-20.28l7.72-21.04q0.24-0.68,0.92-0.84z M242.44,40.24q-0.48-0.6,0.64-1l7.36-2.2l6.16-2.96l-6.16-2.96l-7.36-2.2q-1.12-0.4-0.64-1q0.36-0.52,0.96-0.28l7.16,3.08l6.8,2.36q0.32,0.08,0.52,0.4q0.12,0.2,0.12,0.6t-0.12,0.6q-0.2,0.32-0.52,0.4l-6.8,2.36l-7.16,3.04q-0.6,0.28-0.96-0.24z"/></g></svg>