<svg xmlns="http://www.w3.org/2000/svg" xmlns:xlink="http://www.w3.org/1999/xlink" width="400" height="400" viewBox="0 0 400 400">
<rect data-name="background" width="100%" height="100%" fill="#661515"/><g data-name="container" data="container_num:5" fill="#d8cba6" transform="translate(26.8398347156392,24) scale(1.8616539588893768)"><path xmlns="http://www.w3.org/2000/svg" d="M17.914 148.907zM22.657 154.94a90.586 90.586 0 0 0 5.861 6.251c6.914 6.805 15.159 12.525 24.004 16.851 3.259 1.526 6.265 3.107 9.787 4.468.88.338 1.779.7 2.724 1.026.953.302 1.941.604 2.974.903 1.027.321 2.122.549 3.267.786 1.146.23 2.336.493 3.614.624a91.24 91.24 0 0 1-18.434-5.99 93.833 93.833 0 0 1-16.873-9.842c-10.548-7.727-19.57-17.648-26.16-28.989-.272-.339-.685-.985-1.18-1.808l-.796-1.348-.803-1.551c-.534-1.076-1.149-2.168-1.62-3.226a71.281 71.281 0 0 0-1.326-2.748c2.048 5.101 4.412 9.563 7.059 13.806a93.473 93.473 0 0 0 3.869 5.697c-.192-.259-.392-.511-.583-.771a95.012 95.012 0 0 0 4.6 5.841l.016.02zM18.039 149.078l-.125-.17.125.17zM1.335 106.042l-.483-3.875c.256 2.365.553 5.008 1.096 7.654l-.327-1.879a23.961 23.961 0 0 1-.286-1.9zM85.812 185.575c6.652.673 13.628.472 20.461-.609 6.837-1.077 13.524-2.987 19.741-5.449-11.45 4.503-23.602 6.506-35.49 6.171-1.591-.025-3.159 0-4.712-.113z"/><path xmlns="http://www.w3.org/2000/svg" d="M46.426 171.967l-.259-.165c.087.055.172.111.259.165zM46.167 171.802zM43.653 170.135zM56.077 177.284A83.837 83.837 0 0 0 73.2 183.1c-9.688-2.21-18.805-6.109-26.774-11.133 3.06 1.947 6.277 3.749 9.651 5.317zM177.002 107.094c.098-1.58.296-3.238.346-4.027.594-5.071.77-9.401.745-13.745-.11-.783-.425-2.25-.55-3.918-.153-1.672-.378-3.309-.568-4.924-.289-1.601-.538-3.186-.854-4.74 2.275 11.617 2.237 23.279.144 34.282a94.97 94.97 0 0 1 .737-2.928z"/><path xmlns="http://www.w3.org/2000/svg" d="M.887 83.482c.848-6.9 2.653-13.626 4.37-18.107l-.695 3.28c.429-.961 1.122-3.194 2.067-5.557l.682-1.802.753-1.747c.5-1.131.92-2.203 1.363-3.025-.303.771-.595 1.602-.947 2.436-.345.837-.732 1.687-1.101 2.542l1.514-3.409A111.863 111.863 0 0 0 4.954 69.8c-1.133 4.352-2.029 8.926-2.511 13.032-.14 1.024-.189 2.024-.28 2.978-.067.954-.183 1.864-.192 2.724-.042 1.719-.1 3.224-.071 4.428.105 2.409.25 3.61.459 2.939.411-1.333.403-8.188 1.837-16.767.767-4.276 1.868-8.966 3.362-13.561 1.483-4.599 3.427-9.058 5.44-12.992l-.592 1.292-.545 1.331-1.116 2.691-1.024 2.78-.521 1.402c-.153.476-.308.954-.461 1.434-1.32 3.807-2.307 7.816-3.167 11.857l-.559 3.052c-.205 1.014-.292 2.046-.444 3.067-.318 2.041-.434 4.097-.611 6.129-.199 4.074-.239 8.098.13 11.946-.015-.914-.03-1.726-.017-2.512l.115-2.355c.048-.809.039-1.667.115-2.65.07-.983.134-2.091.19-3.402.391-6.608 1.572-13.15 3.408-19.481 1.75-6.358 3.814-11.957 6.889-17.03l.801-1.526c.542-1.024.993-2.034 1.566-3.064.653-1.13 1.278-1.976 1.784-2.751.521-.767.963-1.441 1.469-2.095l3.682-5.082c.075-.009-.022.185-.2.473a28.962 28.962 0 0 1 1.959-2.49c.755-.875 1.488-1.803 2.109-2.569.146-.007.288-.011.623-.251 8.65-9.197 19.295-16.692 31.291-21.417l2.667-1.039 2.7-.899 1.343-.448 1.36-.38 2.71-.753c1.55-.373 3.12-.751 4.721-1.091l2.437-.426c.819-.141 1.642-.3 2.484-.378 1.674-.201 3.134-.625 3.921-.729 4.369-.249 8.73-.199 13.849.216.397.007 1.015.043 1.732.082.717.041 1.537.061 2.332.134.932.21 1.927.418 2.971.621 6.369.988 12.527 2.754 18.386 5.103l-.007-.028 2.244.894 2.29 1.058c1.571.684 3.11 1.559 4.7 2.383.798.407 1.554.904 2.338 1.354.77.474 1.576.894 2.32 1.412 1.508 1.002 3.037 1.961 4.446 3.032a99.912 99.912 0 0 1 6.6 5.198c.046.042.094.081.14.122l.042.038 1.457 1.322 1.394 1.391 1.395 1.392c.462.467.89.967 1.337 1.449-.216-.35-.208-.491-.2-.63-.689-.66-1.504-1.441-2.309-2.21 1.343 1.222 2.515 2.327 3.477 3.229.371.474.776.94 1.16 1.449l1.186 1.566 1.261 1.629 1.255 1.752c2.226 2.838 4.191 5.874 6.057 8.97.864 1.588 1.817 3.131 2.586 4.774l1.213 2.436 1.092 2.497c.314.533.192.022.231-.068 1.225 2.962 2.21 6.042 3.102 9.146a88.212 88.212 0 0 1 3.408 17.211c.225 1.378.321 2.772.52 4.153l-.123 2.924c-.001 1.103.057 2.206.01 3.311l-.128 3.326c-.016.75-.124 1.569-.187 2.459-.084.888-.128 1.846-.256 2.856l-.412 3.192c-.132 1.119-.387 2.269-.583 3.471a90.635 90.635 0 0 1-4.312 15.482c-.242.826-.427 1.486-.592 1.855-.627 1.501-1.296 2.954-1.942 4.385-.723 1.394-1.386 2.788-2.127 4.108a86.09 86.09 0 0 1-7.949 12.379c-.336.439-.649.885-.987 1.297l-.998 1.206c-.66.779-1.25 1.558-1.876 2.234-1.251 1.352-2.301 2.606-3.286 3.549-1.128 1.178-1.027 1.233-.246.665a35.07 35.07 0 0 0 1.608-1.262l2.122-1.914c.776-.677 1.519-1.441 2.235-2.161.708-.725 1.416-1.386 1.962-1.984 1.101-1.191 1.824-1.926 1.67-1.599-1.777 3.345-5.013 7.471-9.743 12.035-2.413 2.227-5.128 4.647-8.339 6.98-1.566 1.221-3.307 2.338-5.082 3.558-1.834 1.123-3.708 2.353-5.757 3.445-4.484 2.442 3.365-1.475 3.577-1.512a22.87 22.87 0 0 1-2.377 1.64c-1.478.786-2.943 1.597-4.474 2.273-.895.411-1.774.855-2.679 1.239l-2.729 1.122 1.444-.568c2.952-1.173 5.711-2.555 8.202-3.922-.936.566-1.96 1.221-3.082 1.812-1.203.622-2.448 1.302-3.697 1.909l-3.625 1.686c12.968-4.711 24.885-12.507 34.319-22.67 4.723-5.066 8.935-10.631 12.369-16.651a93.904 93.904 0 0 0 8.288-18.999c-3.154 9.93-8.071 19.052-13.981 26.765 10.744-14.507 17.15-32.293 17.999-50.636-.001 1.011-.101 2.018-.168 3.025-.083 1.007-.123 2.018-.241 3.022-.257 2.005-.441 4.021-.827 6.009-.624 4-1.636 7.931-2.782 11.815 2.262-7.021 3.613-14.424 4.145-21.869.554-7.451.092-14.947-1.057-22.211 1.974 9.622 2.301 20.524.619 31.298 1.182-6.949 1.482-14.112 1.028-21.214-.102-2.713-.422-5.407-.685-7.901-.377-2.476-.662-4.762-1.027-6.611 1.445 6.826 2.015 12.648 2.293 18.136-.267-11.977-2.748-24.112-7.62-35.511 2.659 6.191 4.842 12.851 6.175 19.698 1.34 6.84 1.897 13.838 1.58 20.57-.015-.788.018-1.575-.028-2.366l-.107-2.391c.287 10.85-1.384 21.604-4.696 31.717-1.662 5.056-3.715 9.969-6.2 14.644a95.521 95.521 0 0 1-8.56 13.316c3.673-4.29 7.551-10.354 10.646-17.015 3.081-6.675 5.368-13.894 6.941-20.199-2.314 11.322-6.907 22.494-13.571 32.471-6.646 9.985-15.351 18.764-25.423 25.502-10.06 6.759-21.474 11.437-33.187 13.748a94.608 94.608 0 0 1-17.657 1.809 94.462 94.462 0 0 1-17.361-1.515l3.005.571c1.002.19 2.018.295 3.026.445 2.016.324 4.055.446 6.087.633 4.073.229 8.168.306 12.25-.005 4.089-.217 8.152-.827 12.196-1.572 2.006-.456 4.036-.829 6.017-1.414.994-.278 2-.521 2.987-.83l2.955-.958c-1.492.462-3.062 1.074-4.739 1.523l-2.101.618a91.772 91.772 0 0 0 12.91-4.496 89.46 89.46 0 0 0 5.651-2.705 96.653 96.653 0 0 1-10.714 4.872 98.407 98.407 0 0 1-21.66 5.382c-1.11.176-2.122.231-3.029.326l-2.428.24c-1.429.113-2.484.164-3.222.245-1.477.147-1.687.284-1.099.397.587.113 1.971.203 3.673.251 1.697-.01 3.71-.101 5.541-.268 18.397-1.887 35.288-9.107 48.824-19.916 13.545-10.811 23.919-25.172 29.701-41.467.363-.946.642-1.922.944-2.89.293-.971.617-1.932.882-2.912.491-1.97 1.072-3.917 1.448-5.917l.619-2.985.487-3.012.241-1.507.172-1.517.342-3.034c.698-8.114.422-16.315-.812-24.363-.66-4.554-1.82-9.961-3.315-14.777l-1.15-3.484c-.4-1.107-.825-2.151-1.203-3.133l-.557-1.415-.571-1.271-.981-2.124c-3.134-6.359-7.072-12.424-11.682-18.065-4.605-5.643-9.896-10.868-15.861-15.418l-2.244-1.703-2.327-1.608-1.166-.806-1.203-.756-2.417-1.508c-3.295-1.904-6.67-3.739-10.228-5.261-3.521-1.598-7.206-2.895-10.957-4.055-1.895-.52-3.781-1.1-5.724-1.499-.968-.209-1.928-.463-2.907-.638l-2.944-.521C100.363.01 93.04-.285 85.724.265 78.412.83 71.069 2.218 64.028 4.614l-2.635.913c-.881.297-1.73.682-2.597 1.019-.858.359-1.735.673-2.577 1.069l-2.532 1.173c-.852.376-1.675.808-2.496 1.245l-2.469 1.297-2.402 1.412c-.8.472-1.606.933-2.372 1.458l-2.324 1.528c-.782.497-1.506 1.078-2.261 1.612-.741.554-1.51 1.07-2.226 1.654l-2.157 1.737c-.729.565-1.417 1.178-2.103 1.792l-2.063 1.83-1.971 1.919c-.656.639-1.319 1.271-1.93 1.951-5.031 5.298-9.451 11.078-13.066 17.194A99.518 99.518 0 0 0 5.18 64.379C.805 77.299-.45 90.402.134 102.237c-.126-4.872-.147-11.859.753-18.755zm141.132 90.446a96.807 96.807 0 0 0 8.765-6.389c-2.84 2.339-5.758 4.499-8.765 6.389zm40.217-54.282c-.299.901-.552 1.791-.882 2.641l-.957 2.523-.466 1.248-.513 1.231a108.54 108.54 0 0 0-.997 2.501 97.307 97.307 0 0 1-6.587 13.35c-2.521 4.275-5.443 8.281-8.565 12.04-1.542 1.899-3.222 3.66-4.874 5.421l-2.581 2.523c-.847.848-1.774 1.604-2.652 2.404-.736.64-1.478 1.266-2.225 1.882a90.696 90.696 0 0 0 7.896-7.312 89.808 89.808 0 0 1-11.689 10.188c-1.036.722-2.037 1.496-3.113 2.176l-3.247 2.069-3.43 1.949c-1.167.648-2.399 1.224-3.634 1.855a74.206 74.206 0 0 1 2.685-1.508c1.021-.567 2.092-1.237 3.138-1.85 1.054-.601 2.012-1.261 2.808-1.813.796-.552 1.42-1.01 1.745-1.306-.464.315-.936.617-1.406.924a92.477 92.477 0 0 0 1.507-1.015c-.021.023-.065.059-.101.091 10.932-7.466 20.245-17.277 27.223-28.462 7.009-11.175 11.57-23.781 13.46-36.601-.41 5.142-1.352 9.248-2.543 12.851zm-6.654-65.352zm-8.448-12.698a92.37 92.37 0 0 1 7.773 14.352c.25.549.486 1.106.719 1.664 4.963 12.154 7.221 25.192 6.89 38.036.084-4.25-.198-8.498-.669-12.71-.533-4.854-1.518-9.65-2.824-14.341-2.562-9.407-6.723-18.323-12.005-26.451.485.67.996 1.396 1.525 2.166a32.826 32.826 0 0 1 1.59 2.463l-.638-1.109-.689-1.079-1.378-2.156c-.938-1.424-1.955-2.796-2.934-4.192-1.062-1.334-2.069-2.712-3.174-4.011-.836-.953-1.637-1.938-2.485-2.879 2.992 3.155 5.801 6.54 8.299 10.247zM96.886 1.152c1.467.078 2.937.221 4.407.331 1.204.101 2.402.279 3.588.413.356.015.732.039 1.204.092.471.065 1.034.186 1.769.354 5.469.912 10.459 2.283 14.001 3.699 6.798 2.573 13.123 5.774 18.86 9.471 5.739 3.69 10.889 7.887 15.246 12.471 2.008 2.179 1.422 1.704.315.646l1.662 1.764c-.736-.734-1.459-1.478-2.206-2.196l-2.301-2.09c.56.49 1.918 1.663 2.845 2.522-7.389-7.539-16.026-13.799-25.375-18.404-9.356-4.603-19.431-7.446-29.502-8.581 1.618.18 2.412.22 3.168.24-1.085-.127-2.173-.301-3.274-.401-1.479-.097-2.955-.229-4.423-.301l-4.36-.103c1.444-.001 2.907.039 4.376.073z"/><path xmlns="http://www.w3.org/2000/svg" d="M115.942 184.69l.426-.125c-.446.12-.885.252-1.334.366.304-.076.609-.15.908-.241zM160.424 146.151c4.235-5.587 7.977-12.263 10.366-18.014l-.029.006c-6.061 14.322-15.892 26.66-28.16 35.744a159.12 159.12 0 0 0 6.418-4.703c2.698-2.82 7.213-7.406 11.405-13.033zM35.35 162.846c7.172 6.412 15.821 11.992 25.448 15.751 3.754 1.413 7.585 2.651 11.503 3.523 1.944.502 3.929.812 5.899 1.181.987.175 1.987.272 2.979.412.994.129 1.986.275 2.987.333-4.519-.501-9.005-1.251-13.372-2.44-4.364-1.185-8.642-2.65-12.769-4.449a97.4 97.4 0 0 1-11.894-6.314c-3.786-2.408-7.376-5.097-10.781-7.997zM123.877 174.277l-2.219.871-2.266.756c-1.5.54-3.047.944-4.59 1.373 1.551-.39 3.111-.754 4.624-1.254l2.283-.698 2.23-.815c-.086-.044-.594.055-.062-.233zM97.683 179.965c-1.16.099-2.326.09-3.494.102-1.168.014-2.338.039-3.509-.038l1.576.148c.482.031.916.068 1.295.113 1.381-.118 2.752-.151 4.132-.325zM51.441 169.209c1.341.787 2.765 1.48 4.178 2.244.354.194.996.415 1.801.709-1.721-.739-3.37-1.655-5.046-2.505-.83-.441-1.629-.935-2.443-1.395-.812-.464-1.621-.927-2.389-1.445l.937.626.977.584 1.985 1.182z"/></g><g data-name="icon" fill="#d8cba6" data="id:6910141" transform="translate(119.11031110754969,60.94752172680468) scale(1.617283009491326)">
    
 <g>
  <path d="m59.594 18.031c-0.82812-0.25-1.7031 0.21875-1.9531 1.0469l-18.281 60.938c-0.25 0.82812 0.21875 1.7031 1.0469 1.9531 0.15625 0.046875 0.29688 0.0625 0.45312 0.0625 0.67188 0 1.2969-0.4375 1.5-1.1094l18.281-60.938c0.25-0.82812-0.21875-1.7031-1.0469-1.9531z"/>
  <path d="m30.797 28.578c-0.60938-0.60938-1.5938-0.60938-2.2031 0l-20.312 20.312c-0.60938 0.60938-0.60938 1.5938 0 2.2031l20.312 20.312c0.3125 0.3125 0.70312 0.45312 1.1094 0.45312s0.79688-0.15625 1.1094-0.45312c0.60938-0.60938 0.60938-1.5938 0-2.2031l-19.203-19.203 19.203-19.203c0.60938-0.60938 0.60938-1.5938 0-2.2031z"/>
  <path d="m91.734 48.891-20.312-20.312c-0.60938-0.60938-1.5938-0.60938-2.2031 0s-0.60938 1.5938 0 2.2031l19.203 19.203-19.203 19.203c-0.60938 0.60938-0.60938 1.5938 0 2.2031 0.3125 0.3125 0.70312 0.45312 1.1094 0.45312s0.79688-0.15625 1.1094-0.45312l20.312-20.312c0.60938-0.60938 0.60938-1.5938 0-2.2031z"/>
 </g>

    </g><g data-name="business_name" fill="#d8cba6" data="id:146" transform="translate(103.17060077669302,169.44789403440382) scale(2.2956233275226956)"><path d="M27.52,41.88q-2.32,3.52-5.58,5.12t-6.74,1.6q-2.76,0-5.4-1t-4.68-2.86t-3.28-4.56t-1.24-6.1q0-3.48,1.24-6.22t3.28-4.66t4.7-2.94t5.54-1.02q2.52,0,5.02,0.82t4.78,2.54l-1.28,5.84q0.28-2.04-0.32-3.64t-1.8-2.7t-2.82-1.68t-3.42-0.58q-2.04,0-4.06,0.76t-3.64,2.34t-2.62,4.04t-1,5.82q0,3.56,1.1,6.22t2.9,4.42t4.1,2.64t4.7,0.88q2.92,0,5.64-1.28t4.56-3.92z M55.64,41.88q-2.32,3.52-5.58,5.12t-6.74,1.6q-2.76,0-5.4-1t-4.68-2.86t-3.28-4.56t-1.24-6.1q0-3.48,1.24-6.22t3.28-4.66t4.7-2.94t5.54-1.02q2.52,0,5.02,0.82t4.78,2.54l-1.28,5.84q0.28-2.04-0.32-3.64t-1.8-2.7t-2.82-1.68t-3.42-0.58q-2.04,0-4.06,0.76t-3.64,2.34t-2.62,4.04t-1,5.82q0,3.56,1.1,6.22t2.9,4.42t4.1,2.64t4.7,0.88q2.92,0,5.64-1.28t4.56-3.92z M83.76,41.88q-2.32,3.52-5.58,5.12t-6.74,1.6q-2.76,0-5.4-1t-4.68-2.86t-3.28-4.56t-1.24-6.1q0-3.48,1.24-6.22t3.28-4.66t4.7-2.94t5.54-1.02q2.52,0,5.02,0.82t4.78,2.54l-1.28,5.84q0.28-2.04-0.32-3.64t-1.8-2.7t-2.82-1.68t-3.42-0.58q-2.04,0-4.06,0.76t-3.64,2.34t-2.62,4.04t-1,5.82q0,3.56,1.1,6.22t2.9,4.42t4.1,2.64t4.7,0.88q2.92,0,5.64-1.28t4.56-3.92z"/></g><g data-name="slogan" fill="#d8cba6" data="id:85" transform="translate(111.78480153470842,281.5438238413184) scale(0.5388151698685272)"><path d="M15,20.44921875q-0.52734375,0-1.23046875,0.21484375t-1.435546875,0.810546875t-1.435546875,1.669921875t-1.259765625,2.783203125t-0.8984375,4.150390625t-0.341796875,5.76171875q0,3.1640625,0.341796875,5.48828125t0.91796875,3.955078125t1.318359375,2.666015625t1.5625,1.611328125t1.640625,0.791015625t1.54296875,0.21484375q0.76171875,0,1.54296875-0.1953125t1.533203125-0.56640625t1.4453125-0.8984375t1.279296875-1.2109375l0.87890625,0.87890625q-0.5859375,0.72265625-1.40625,1.474609375t-1.904296875,1.3671875t-2.431640625,1.005859375t-2.98828125,0.390625q-2.55859375,0-4.755859375-0.9765625t-3.828125-3.037109375t-2.55859375-5.283203125t-0.927734375-7.71484375q0-4.21875,0.9765625-7.40234375t2.65625-5.322265625t3.9453125-3.22265625t4.82421875-1.083984375q1.69921875,0,3.095703125,0.322265625t2.412109375,0.9375t1.572265625,1.5234375t0.556640625,2.060546875q0,0.52734375-0.17578125,1.103515625t-0.537109375,1.0546875t-0.888671875,0.78125t-1.23046875,0.302734375q-0.625,0-0.966796875-0.2734375t-0.5078125-0.72265625t-0.21484375-1.025390625t-0.068359375-1.181640625t-0.087890625-1.181640625t-0.2734375-1.025390625t-0.595703125-0.72265625t-1.09375-0.2734375z M33.02734375,37.8515625q0-0.48828125-0.3125-0.7421875t-0.80078125-0.25390625q-0.68359375,0-1.298828125,0.3125t-1.083984375,0.91796875t-0.7421875,1.494140625t-0.2734375,2.060546875q0,1.1328125,0.166015625,1.875t0.44921875,1.181640625t0.654296875,0.615234375t0.78125,0.17578125q0.5078125,0,0.95703125-0.263671875t0.78125-0.673828125t0.52734375-0.91796875t0.1953125-1.015625l0-4.765625z M29.921875,29.296875q-0.6640625,0-1.23046875,0.15625t-0.9765625,0.390625t-0.64453125,0.517578125t-0.234375,0.537109375q0,0.29296875,0.302734375,0.419921875t0.673828125,0.29296875t0.673828125,0.46875t0.302734375,0.927734375q0,0.41015625-0.166015625,0.751953125t-0.44921875,0.60546875t-0.6640625,0.41015625t-0.791015625,0.146484375q-1.09375,0-1.767578125-0.7421875t-0.673828125-1.97265625q0-1.19140625,0.625-2.041015625t1.630859375-1.396484375t2.275390625-0.810546875t2.5390625-0.263671875q1.5234375,0,2.91015625,0.33203125t2.451171875,1.0546875t1.69921875,1.8359375t0.634765625,2.6953125l0,11.03515625q0,0.17578125,0.01953125,0.390625t0.09765625,0.390625t0.234375,0.29296875t0.44921875,0.1171875q0.3515625,0,0.654296875-0.263671875t0.537109375-0.537109375l0.48828125,0.41015625q-0.29296875,0.41015625-0.703125,0.8984375t-0.99609375,0.91796875t-1.3671875,0.72265625t-1.77734375,0.29296875q-1.23046875,0-2.1875-0.732421875t-1.25-2.255859375q-0.625,0.83984375-1.298828125,1.40625t-1.376953125,0.91796875t-1.416015625,0.5078125t-1.435546875,0.15625q-0.9375,0-1.81640625-0.29296875t-1.572265625-0.927734375t-1.11328125-1.650390625t-0.419921875-2.48046875q0-1.77734375,0.703125-2.91015625t1.845703125-1.904296875t2.59765625-1.318359375t2.978515625-1.15234375q1.1328125-0.44921875,1.650390625-1.337890625t0.517578125-1.826171875q0-1.4453125-0.849609375-2.314453125t-2.314453125-0.869140625z M50.1953125,46.25q0,0.25390625-0.087890625,0.60546875t-0.41015625,0.6640625t-0.9375,0.537109375t-1.650390625,0.224609375t-1.62109375-0.244140625t-0.869140625-0.576171875t-0.3515625-0.68359375t-0.068359375-0.56640625l0-25.1953125q0-0.56640625-0.263671875-0.986328125t-0.888671875-0.419921875q-0.33203125,0-0.576171875,0.107421875t-0.517578125,0.322265625l-0.390625-0.46875q0.44921875-0.37109375,0.99609375-0.732421875t1.201171875-0.634765625t1.396484375-0.44921875t1.5625-0.17578125q1.26953125,0,1.97265625,0.341796875t1.03515625,0.83984375t0.400390625,1.0546875t0.068359375,0.986328125l0,25.44921875z  M76.6796875,20.44921875q-0.52734375,0-1.23046875,0.21484375t-1.435546875,0.810546875t-1.435546875,1.669921875t-1.259765625,2.783203125t-0.8984375,4.150390625t-0.341796875,5.76171875q0,3.1640625,0.341796875,5.48828125t0.91796875,3.955078125t1.318359375,2.666015625t1.5625,1.611328125t1.640625,0.791015625t1.54296875,0.21484375q0.76171875,0,1.54296875-0.1953125t1.533203125-0.56640625t1.4453125-0.8984375t1.279296875-1.2109375l0.87890625,0.87890625q-0.5859375,0.72265625-1.40625,1.474609375t-1.904296875,1.3671875t-2.431640625,1.005859375t-2.98828125,0.390625q-2.55859375,0-4.755859375-0.9765625t-3.828125-3.037109375t-2.55859375-5.283203125t-0.927734375-7.71484375q0-4.21875,0.9765625-7.40234375t2.65625-5.322265625t3.9453125-3.22265625t4.82421875-1.083984375q1.69921875,0,3.095703125,0.322265625t2.412109375,0.9375t1.572265625,1.5234375t0.556640625,2.060546875q0,0.52734375-0.17578125,1.103515625t-0.537109375,1.0546875t-0.888671875,0.78125t-1.23046875,0.302734375q-0.625,0-0.966796875-0.2734375t-0.5078125-0.72265625t-0.21484375-1.025390625t-0.068359375-1.181640625t-0.087890625-1.181640625t-0.2734375-1.025390625t-0.595703125-0.72265625t-1.09375-0.2734375z M84.66796875,37.96875q0-2.55859375,0.7421875-4.482421875t1.982421875-3.212890625t2.880859375-1.93359375t3.4375-0.64453125t3.4375,0.595703125t2.880859375,1.826171875t1.982421875,3.115234375t0.7421875,4.462890625q0,2.55859375-0.7421875,4.53125t-1.982421875,3.3203125t-2.880859375,2.041015625t-3.4375,0.693359375t-3.4375-0.654296875t-2.880859375-1.943359375t-1.982421875-3.22265625t-0.7421875-4.4921875z M96.6796875,37.7734375q0-1.5625-0.107421875-3.017578125t-0.419921875-2.587890625t-0.8984375-1.806640625t-1.54296875-0.673828125t-1.54296875,0.712890625t-0.8984375,1.875t-0.41015625,2.646484375t-0.09765625,3.046875t0.09765625,3.056640625t0.41015625,2.666015625t0.8984375,1.884765625t1.54296875,0.712890625t1.54296875-0.7421875t0.8984375-1.953125t0.419921875-2.734375t0.107421875-3.0859375z M117.24609375,37.36328125l0-0.869140625t-0.0390625-1.50390625t-0.13671875-1.806640625t-0.3125-1.77734375q-0.46875-0.60546875-1.044921875-1.083984375t-1.474609375-0.478515625q-1.5234375,0-2.236328125,1.9921875t-0.712890625,6.171875q0,1.8359375,0.166015625,3.359375t0.5078125,2.6171875t0.87890625,1.69921875t1.279296875,0.60546875q3.125,0,3.125-8.92578125z M117.01171875,28.76953125q-0.37109375-1.953125-1.03515625-3.642578125t-1.591796875-2.919921875t-2.109375-1.93359375t-2.548828125-0.703125q-0.78125,0-1.416015625,0.1953125t-1.103515625,0.458984375t-0.771484375,0.5078125t-0.439453125,0.361328125l-0.5078125-0.68359375q0.46875-0.60546875,1.142578125-1.1328125t1.474609375-0.8984375t1.689453125-0.5859375t1.767578125-0.21484375q2.890625,0,5.078125,1.259765625t3.65234375,3.564453125t2.20703125,5.56640625t0.7421875,7.24609375q0,3.22265625-0.654296875,5.6640625t-1.865234375,4.091796875t-2.939453125,2.48046875t-3.896484375,0.830078125q-1.50390625,0-3.056640625-0.537109375t-2.8125-1.748046875t-2.060546875-3.173828125t-0.80078125-4.814453125q0-2.4609375,0.693359375-4.375t1.865234375-3.232421875t2.71484375-2.01171875t3.26171875-0.693359375q0.6640625,0,1.19140625,0.107421875t0.91796875,0.263671875t0.68359375,0.341796875t0.52734375,0.361328125z M132.01171875,39.00390625q0,0.625,0.185546875,1.357421875t0.537109375,1.474609375t0.869140625,1.416015625t1.19140625,1.201171875t1.494140625,0.83984375t1.796875,0.3125q0.68359375,0,1.26953125-0.15625t1.09375-0.4296875t0.9765625-0.634765625t0.9375-0.771484375l0.48828125,0.46875q-0.44921875,0.60546875-1.15234375,1.328125t-1.69921875,1.357421875t-2.32421875,1.0546875t-3.02734375,0.419921875t-3.310546875-0.615234375t-2.861328125-1.845703125t-2.001953125-3.06640625t-0.751953125-4.296875q0-1.77734375,0.44921875-3.26171875t1.220703125-2.67578125t1.796875-2.08984375t2.158203125-1.494140625t2.314453125-0.8984375t2.275390625-0.302734375q1.4453125,0,2.51953125,0.3125t1.787109375,0.83984375t1.064453125,1.220703125t0.3515625,1.455078125q0,0.91796875-0.52734375,1.650390625t-1.40625,1.279296875z M135.9375,35.0390625q0.25390625-0.15625,0.419921875-0.302734375t0.263671875-0.3515625t0.146484375-0.5078125t0.048828125-0.751953125q0-0.48828125-0.107421875-1.083984375t-0.361328125-1.123046875t-0.64453125-0.87890625t-0.9375-0.3515625q-0.703125,0-1.201171875,0.419921875t-0.8203125,1.083984375t-0.5078125,1.513671875t-0.283203125,1.708984375t-0.1171875,1.650390625t-0.01953125,1.337890625z M152.51953125,30.9765625q0.1953125-0.25390625,0.341796875-0.546875t0.146484375-0.546875q0-0.37109375-0.5859375-0.52734375t-2.16796875-0.15625q-0.9765625,0-1.62109375,0.234375t-1.064453125,0.576171875t-0.68359375,0.751953125t-0.458984375,0.751953125t-0.380859375,0.576171875t-0.478515625,0.234375q-0.33203125,0-0.576171875-0.21484375t-0.400390625-0.537109375t-0.234375-0.703125t-0.078125-0.732421875q0-0.52734375,0.44921875-0.9765625t1.30859375-0.771484375t2.099609375-0.5078125t2.841796875-0.185546875q2.59765625,0,4.228515625,0.21484375t2.548828125,0.576171875t1.25,0.869140625t0.33203125,1.09375q0,0.3125-0.146484375,0.693359375t-0.3515625,0.732421875t-0.41015625,0.654296875t-0.302734375,0.439453125l-8.125,12.44140625q-0.05859375,0.09765625-0.185546875,0.302734375t-0.126953125,0.458984375q0,0.15625,0.107421875,0.2734375t0.41015625,0.1953125t0.869140625,0.107421875t1.484375,0.029296875q1.171875,0,1.943359375-0.25390625t1.259765625-0.64453125t0.78125-0.830078125t0.5078125-0.830078125t0.419921875-0.64453125t0.537109375-0.25390625t0.5859375,0.244140625t0.4296875,0.615234375t0.263671875,0.80078125t0.087890625,0.78125q0,0.52734375-0.46875,0.986328125t-1.42578125,0.80078125t-2.431640625,0.537109375t-3.486328125,0.1953125q-2.16796875,0-3.69140625-0.17578125t-2.48046875-0.517578125t-1.38671875-0.869140625t-0.4296875-1.23046875q0-0.56640625,0.263671875-1.123046875t0.771484375-1.279296875z  M184.12109375,20.44921875q-0.52734375,0-1.23046875,0.21484375t-1.435546875,0.810546875t-1.435546875,1.669921875t-1.259765625,2.783203125t-0.8984375,4.150390625t-0.341796875,5.76171875q0,3.1640625,0.341796875,5.48828125t0.91796875,3.955078125t1.318359375,2.666015625t1.5625,1.611328125t1.640625,0.791015625t1.54296875,0.21484375q0.76171875,0,1.54296875-0.1953125t1.533203125-0.56640625t1.4453125-0.8984375t1.279296875-1.2109375l0.87890625,0.87890625q-0.5859375,0.72265625-1.40625,1.474609375t-1.904296875,1.3671875t-2.431640625,1.005859375t-2.98828125,0.390625q-2.55859375,0-4.755859375-0.9765625t-3.828125-3.037109375t-2.55859375-5.283203125t-0.927734375-7.71484375q0-4.21875,0.9765625-7.40234375t2.65625-5.322265625t3.9453125-3.22265625t4.82421875-1.083984375q1.69921875,0,3.095703125,0.322265625t2.412109375,0.9375t1.572265625,1.5234375t0.556640625,2.060546875q0,0.52734375-0.17578125,1.103515625t-0.537109375,1.0546875t-0.888671875,0.78125t-1.23046875,0.302734375q-0.625,0-0.966796875-0.2734375t-0.5078125-0.72265625t-0.21484375-1.025390625t-0.068359375-1.181640625t-0.087890625-1.181640625t-0.2734375-1.025390625t-0.595703125-0.72265625t-1.09375-0.2734375z M199.58984375,31.81640625q0.7421875-1.1328125,1.58203125-2.05078125q0.3515625-0.390625,0.76171875-0.76171875t0.849609375-0.6640625t0.908203125-0.46875t0.9375-0.17578125q0.99609375,0,1.5625,0.595703125t0.56640625,1.669921875q0,0.6640625-0.107421875,1.279296875t-0.419921875,1.494140625l-0.546875,0q-0.1171875-0.60546875-0.546875-1.005859375t-1.25-0.400390625q-0.60546875,0-1.19140625,0.224609375t-1.142578125,0.556640625t-1.0546875,0.72265625t-0.908203125,0.7421875l0,12.67578125q0,0.25390625-0.078125,0.60546875t-0.380859375,0.6640625t-0.8984375,0.537109375t-1.630859375,0.224609375t-1.630859375-0.244140625t-0.908203125-0.576171875t-0.390625-0.68359375t-0.078125-0.56640625l0-15.078125q0-0.56640625-0.263671875-0.986328125t-0.888671875-0.419921875q-0.33203125,0-0.56640625,0.1171875t-0.5078125,0.33203125l-0.41015625-0.48828125q0.44921875-0.37109375,1.005859375-0.732421875t1.201171875-0.634765625t1.38671875-0.44921875t1.5625-0.17578125q0.83984375,0,1.435546875,0.224609375t0.9765625,0.5859375t0.595703125,0.810546875t0.322265625,0.908203125t0.126953125,0.87890625t0.01953125,0.712890625z M214.27734375,39.00390625q0,0.625,0.185546875,1.357421875t0.537109375,1.474609375t0.869140625,1.416015625t1.19140625,1.201171875t1.494140625,0.83984375t1.796875,0.3125q0.68359375,0,1.26953125-0.15625t1.09375-0.4296875t0.9765625-0.634765625t0.9375-0.771484375l0.48828125,0.46875q-0.44921875,0.60546875-1.15234375,1.328125t-1.69921875,1.357421875t-2.32421875,1.0546875t-3.02734375,0.419921875t-3.310546875-0.615234375t-2.861328125-1.845703125t-2.001953125-3.06640625t-0.751953125-4.296875q0-1.77734375,0.44921875-3.26171875t1.220703125-2.67578125t1.796875-2.08984375t2.158203125-1.494140625t2.314453125-0.8984375t2.275390625-0.302734375q1.4453125,0,2.51953125,0.3125t1.787109375,0.83984375t1.064453125,1.220703125t0.3515625,1.455078125q0,0.91796875-0.52734375,1.650390625t-1.40625,1.279296875z M218.203125,35.0390625q0.25390625-0.15625,0.419921875-0.302734375t0.263671875-0.3515625t0.146484375-0.5078125t0.048828125-0.751953125q0-0.48828125-0.107421875-1.083984375t-0.361328125-1.123046875t-0.64453125-0.87890625t-0.9375-0.3515625q-0.703125,0-1.201171875,0.419921875t-0.8203125,1.083984375t-0.5078125,1.513671875t-0.283203125,1.708984375t-0.1171875,1.650390625t-0.01953125,1.337890625z M236.54296875,37.8515625q0-0.48828125-0.3125-0.7421875t-0.80078125-0.25390625q-0.68359375,0-1.298828125,0.3125t-1.083984375,0.91796875t-0.7421875,1.494140625t-0.2734375,2.060546875q0,1.1328125,0.166015625,1.875t0.44921875,1.181640625t0.654296875,0.615234375t0.78125,0.17578125q0.5078125,0,0.95703125-0.263671875t0.78125-0.673828125t0.52734375-0.91796875t0.1953125-1.015625l0-4.765625z M233.4375,29.296875q-0.6640625,0-1.23046875,0.15625t-0.9765625,0.390625t-0.64453125,0.517578125t-0.234375,0.537109375q0,0.29296875,0.302734375,0.419921875t0.673828125,0.29296875t0.673828125,0.46875t0.302734375,0.927734375q0,0.41015625-0.166015625,0.751953125t-0.44921875,0.60546875t-0.6640625,0.41015625t-0.791015625,0.146484375q-1.09375,0-1.767578125-0.7421875t-0.673828125-1.97265625q0-1.19140625,0.625-2.041015625t1.630859375-1.396484375t2.275390625-0.810546875t2.5390625-0.263671875q1.5234375,0,2.91015625,0.33203125t2.451171875,1.0546875t1.69921875,1.8359375t0.634765625,2.6953125l0,11.03515625q0,0.17578125,0.01953125,0.390625t0.09765625,0.390625t0.234375,0.29296875t0.44921875,0.1171875q0.3515625,0,0.654296875-0.263671875t0.537109375-0.537109375l0.48828125,0.41015625q-0.29296875,0.41015625-0.703125,0.8984375t-0.99609375,0.91796875t-1.3671875,0.72265625t-1.77734375,0.29296875q-1.23046875,0-2.1875-0.732421875t-1.25-2.255859375q-0.625,0.83984375-1.298828125,1.40625t-1.376953125,0.91796875t-1.416015625,0.5078125t-1.435546875,0.15625q-0.9375,0-1.81640625-0.29296875t-1.572265625-0.927734375t-1.11328125-1.650390625t-0.419921875-2.48046875q0-1.77734375,0.703125-2.91015625t1.845703125-1.904296875t2.59765625-1.318359375t2.978515625-1.15234375q1.1328125-0.44921875,1.650390625-1.337890625t0.517578125-1.826171875q0-1.4453125-0.849609375-2.314453125t-2.314453125-0.869140625z M254.00390625,29.375l0,14.43359375q0,1.03515625,0.390625,1.435546875t1.07421875,0.400390625q0.52734375,0,0.9375-0.29296875t0.703125-0.6640625q0.3515625-0.41015625,0.60546875-0.95703125l0.60546875,0.2734375q-0.29296875,0.625-0.693359375,1.3671875t-1.064453125,1.376953125t-1.669921875,1.064453125t-2.529296875,0.4296875q-0.859375,0-1.650390625-0.25390625t-1.40625-0.80078125t-0.986328125-1.3671875t-0.37109375-1.97265625l0-14.47265625l-2.1875,0l0-1.40625q0.546875,0,1.5234375-0.283203125t2.001953125-0.947265625t1.904296875-1.77734375t1.25-2.75390625l1.5625,0l0,5.76171875l3.18359375,0q1.5625,0,1.5625-0.52734375q0-0.1953125-0.1953125-0.263671875t-0.439453125-0.17578125t-0.439453125-0.302734375t-0.1953125-0.64453125q0-0.546875,0.341796875-0.859375t0.888671875-0.3125q0.3515625,0,0.615234375,0.146484375t0.439453125,0.390625t0.263671875,0.556640625t0.087890625,0.625q0,1.26953125-0.732421875,2.021484375t-2.353515625,0.751953125l-3.02734375,0z M267.3828125,46.2109375q0,0.25390625-0.087890625,0.615234375t-0.41015625,0.68359375t-0.927734375,0.546875t-1.640625,0.224609375t-1.62109375-0.244140625t-0.87890625-0.576171875t-0.361328125-0.68359375t-0.068359375-0.56640625l0-15.078125q0-0.56640625-0.263671875-0.986328125t-0.888671875-0.419921875q-0.33203125,0-0.56640625,0.1171875t-0.5078125,0.33203125l-0.41015625-0.48828125q0.44921875-0.37109375,1.005859375-0.732421875t1.201171875-0.634765625t1.38671875-0.44921875t1.5625-0.17578125q1.26953125,0,1.97265625,0.341796875t1.03515625,0.83984375t0.400390625,1.064453125t0.068359375,0.99609375l0,15.2734375z M260.78125,23.2421875q0-0.546875,0.244140625-1.044921875t0.68359375-0.869140625t1.015625-0.5859375t1.259765625-0.21484375q0.6640625,0,1.240234375,0.21484375t1.005859375,0.5859375t0.673828125,0.869140625t0.244140625,1.044921875q0,0.56640625-0.244140625,1.0546875t-0.673828125,0.849609375t-1.005859375,0.576171875t-1.240234375,0.21484375q-0.68359375,0-1.259765625-0.21484375t-1.015625-0.576171875t-0.68359375-0.849609375t-0.244140625-1.0546875z M271.0546875,37.96875q0-2.55859375,0.7421875-4.482421875t1.982421875-3.212890625t2.880859375-1.93359375t3.4375-0.64453125t3.4375,0.595703125t2.880859375,1.826171875t1.982421875,3.115234375t0.7421875,4.462890625q0,2.55859375-0.7421875,4.53125t-1.982421875,3.3203125t-2.880859375,2.041015625t-3.4375,0.693359375t-3.4375-0.654296875t-2.880859375-1.943359375t-1.982421875-3.22265625t-0.7421875-4.4921875z M283.06640625,37.7734375q0-1.5625-0.107421875-3.017578125t-0.419921875-2.587890625t-0.8984375-1.806640625t-1.54296875-0.673828125t-1.54296875,0.712890625t-0.8984375,1.875t-0.41015625,2.646484375t-0.09765625,3.046875t0.09765625,3.056640625t0.41015625,2.666015625t0.8984375,1.884765625t1.54296875,0.712890625t1.54296875-0.7421875t0.8984375-1.953125t0.419921875-2.734375t0.107421875-3.0859375z M304.27734375,38.2421875q0-2.4609375-0.224609375-3.935546875t-0.595703125-2.24609375t-0.8203125-1.015625t-0.91796875-0.244140625q-0.56640625,0-1.005859375,0.302734375t-0.76171875,0.693359375t-0.546875,0.78125t-0.380859375,0.5859375l0,13.046875q0,0.25390625-0.078125,0.615234375t-0.380859375,0.68359375t-0.8984375,0.546875t-1.630859375,0.224609375t-1.630859375-0.244140625t-0.908203125-0.576171875t-0.390625-0.68359375t-0.078125-0.56640625l0-15.078125q0-0.56640625-0.263671875-0.986328125t-0.888671875-0.419921875q-0.33203125,0-0.56640625,0.1171875t-0.5078125,0.33203125l-0.41015625-0.48828125q0.44921875-0.37109375,1.005859375-0.732421875t1.201171875-0.634765625t1.38671875-0.44921875t1.5625-0.17578125q1.26953125,0,1.97265625,0.419921875t1.03515625,1.005859375t0.400390625,1.220703125t0.068359375,1.064453125q0.72265625-1.03515625,1.640625-1.85546875q0.37109375-0.3515625,0.830078125-0.68359375t0.9765625-0.595703125t1.09375-0.419921875t1.181640625-0.15625q1.328125,0,2.353515625,0.5078125t1.728515625,1.69921875t1.07421875,3.154296875t0.37109375,4.873046875q0,2.83203125-0.5078125,4.921875t-1.328125,3.5546875t-1.85546875,2.392578125t-2.08984375,1.455078125t-2.021484375,0.732421875t-1.669921875,0.224609375l-0.21484375-0.80078125q0.5859375-0.13671875,1.083984375-0.4296875t0.908203125-0.859375t0.72265625-1.435546875t0.537109375-2.177734375t0.33203125-3.095703125t0.107421875-4.169921875z M320.5859375,29.2578125q-0.44921875,0-0.849609375,0.1171875t-0.712890625,0.380859375t-0.48828125,0.6640625t-0.17578125,0.947265625q0,0.76171875,0.556640625,1.513671875t1.38671875,1.5625t1.796875,1.6796875t1.796875,1.8359375t1.38671875,2.060546875t0.556640625,2.34375q0,1.40625-0.478515625,2.5t-1.3671875,1.85546875t-2.1484375,1.162109375t-2.802734375,0.400390625q-1.34765625,0-2.44140625-0.380859375t-1.943359375-0.9375t-1.455078125-1.181640625t-0.9375-1.1328125l0.68359375-0.48828125q0.25390625,0.29296875,0.64453125,0.634765625t0.869140625,0.634765625t1.025390625,0.478515625t1.11328125,0.185546875q1.40625,0,2.3046875-0.673828125t0.8984375-2.001953125q0-0.7421875-0.48828125-1.533203125t-1.23046875-1.630859375t-1.6015625-1.73828125t-1.6015625-1.85546875t-1.23046875-1.97265625t-0.48828125-2.109375q0-1.23046875,0.498046875-2.1484375t1.328125-1.5234375t1.89453125-0.908203125t2.197265625-0.302734375q1.30859375,0,2.3828125,0.234375t1.845703125,0.712890625t1.19140625,1.201171875t0.419921875,1.6796875q0,0.7421875-0.48828125,1.2890625t-1.3671875,0.546875q-0.83984375,0-1.279296875-0.361328125t-0.439453125-0.986328125q0-0.41015625,0.205078125-0.64453125t0.458984375-0.380859375t0.458984375-0.25390625t0.205078125-0.283203125q0-0.546875-0.5859375-0.869140625t-1.50390625-0.322265625z"/></g></svg>